# xmcd
#
# Track frame offsets:
#	150
#	16578
#	30648
#	49473
#	66288
#	74802
#	104373
#	118685
#	133515
#	150877
#	171577
#	190753
#	213410
#	239378
#
# Disc length: 3623 seconds
#
# Revision: 0
# Processed by: cddbd v1.5.1PL2 Copyright (c) Steve Scherf et al.
# Submitted via: dBpowerAMP V4.0
#
DISCID=c70e250e
DTITLE=colinde - Colinde din ardeal 
DYEAR=2005
DGENRE=Blues
TTITLE0=pe strada din viflaim
TTITLE1=asta-i sara de craciun
TTITLE2=joaca patru-n rai
TTITLE3=manastrul 
TTITLE4=sara de ajun
TTITLE5=maica lu isus
TTITLE6=sarbatoare-n lume
TTITLE7=crestinulor
TTITLE8=maica sfanta
TTITLE9=cum a fost 
TTITLE10=seara de craciun
TTITLE11=intram a colinda
TTITLE12=caborat-o,coborat
TTITLE13=imparateasca
EXTD=docado
EXTT0=
EXTT1=
EXTT2=
EXTT3=
EXTT4=
EXTT5=
EXTT6=
EXTT7=
EXTT8=
EXTT9=
EXTT10=
EXTT11=
EXTT12=
EXTT13=
PLAYORDER=
